<?xml version="1.0" standalone="no"?>
 <!DOCTYPE svg PUBLIC "-//W3C//DTD SVG 1.1//EN" 
 "http://www.w3.org/Graphics/SVG/1.1/DTD/svg11.dtd"> 
<svg
  xmlns:svg="http://www.w3.org/2000/svg"
  xmlns="http://www.w3.org/2000/svg"
  xmlns:xlink="http://www.w3.org/1999/xlink"
  version="1.1"
  width="330.2254mm" height="121.3104mm" viewBox="0.0000 0.0000 330.2254 121.3104">
<title>SVG Image created as remake-F_Courtyard.svg date 2024/11/17 13:14:57 </title>
  <desc>Image generated by PCBNEW </desc>
<g style="fill:#000000; fill-opacity:1.0000;stroke:#000000; stroke-opacity:1.0000;
stroke-linecap:round; stroke-linejoin:round;"
 transform="translate(0 0) scale(1 1)">
</g>
<g style="fill:none; 
stroke:#000000; stroke-width:0.0500; stroke-opacity:1; 
stroke-linecap:round; stroke-linejoin:round;">
<path d="M176.2900 83.5800
L176.2900 98.0800
" />
<path d="M176.2900 98.0800
L190.7900 98.0800
" />
<path d="M190.7900 83.5800
L176.2900 83.5800
" />
<path d="M190.7900 98.0800
L190.7900 83.5800
" />
<path d="M157.2400 64.5300
L157.2400 79.0300
" />
<path d="M157.2400 79.0300
L171.7400 79.0300
" />
<path d="M171.7400 64.5300
L157.2400 64.5300
" />
<path d="M171.7400 79.0300
L171.7400 64.5300
" />
<path d="M176.2900 26.4300
L176.2900 40.9300
" />
<path d="M176.2900 40.9300
L190.7900 40.9300
" />
<path d="M190.7900 26.4300
L176.2900 26.4300
" />
<path d="M190.7900 40.9300
L190.7900 26.4300
" />
<path d="M98.8200 26.4300
L98.8200 40.9300
" />
<path d="M98.8200 40.9300
L113.3200 40.9300
" />
<path d="M113.3200 26.4300
L98.8200 26.4300
" />
<path d="M113.3200 40.9300
L113.3200 26.4300
" />
<path d="M22.6200 26.4300
L22.6200 40.9300
" />
<path d="M22.6200 40.9300
L37.1200 40.9300
" />
<path d="M37.1200 26.4300
L22.6200 26.4300
" />
<path d="M37.1200 40.9300
L37.1200 26.4300
" />
<path d="M176.2900 64.5300
L176.2900 79.0300
" />
<path d="M176.2900 79.0300
L190.7900 79.0300
" />
<path d="M190.7900 64.5300
L176.2900 64.5300
" />
<path d="M190.7900 79.0300
L190.7900 64.5300
" />
<circle cx="146.7100" cy="31.1400" r="2.3500" /> 
<path d="M41.6700 83.5800
L41.6700 98.0800
" />
<path d="M41.6700 98.0800
L56.1700 98.0800
" />
<path d="M56.1700 83.5800
L41.6700 83.5800
" />
<path d="M56.1700 98.0800
L56.1700 83.5800
" />
<path d="M195.3400 64.5300
L195.3400 79.0300
" />
<path d="M195.3400 79.0300
L209.8400 79.0300
" />
<path d="M209.8400 64.5300
L195.3400 64.5300
" />
<path d="M209.8400 79.0300
L209.8400 64.5300
" />
<path d="M271.5400 45.4800
L271.5400 59.9800
" />
<path d="M271.5400 59.9800
L286.0400 59.9800
" />
<path d="M286.0400 45.4800
L271.5400 45.4800
" />
<path d="M286.0400 59.9800
L286.0400 45.4800
" />
<path d="M98.8200 45.4800
L98.8200 59.9800
" />
<path d="M98.8200 59.9800
L113.3200 59.9800
" />
<path d="M113.3200 45.4800
L98.8200 45.4800
" />
<path d="M113.3200 59.9800
L113.3200 45.4800
" />
</g>
<g style="fill:none; 
stroke:#000000; stroke-width:0.1200; stroke-opacity:1; 
stroke-linecap:round; stroke-linejoin:round;">
<path d="M306.5250 24.1900
L328.5250 24.1900
" />
<path d="M306.5250 76.1900
L306.5250 24.1900
" />
<path d="M328.5250 24.1900
L328.5250 76.1900
" />
<path d="M328.5250 76.1900
L306.5250 76.1900
" />
</g>
<g style="fill:none; 
stroke:#000000; stroke-width:0.0500; stroke-opacity:1; 
stroke-linecap:round; stroke-linejoin:round;">
<path d="M252.4900 64.5300
L252.4900 79.0300
" />
<path d="M252.4900 79.0300
L266.9900 79.0300
" />
<path d="M266.9900 64.5300
L252.4900 64.5300
" />
<path d="M266.9900 79.0300
L266.9900 64.5300
" />
<path d="M195.3400 26.4300
L195.3400 40.9300
" />
<path d="M195.3400 40.9300
L209.8400 40.9300
" />
<path d="M209.8400 26.4300
L195.3400 26.4300
" />
<path d="M209.8400 40.9300
L209.8400 26.4300
" />
<path d="M204.2300 102.6300
L204.2300 117.1300
" />
<path d="M204.2300 117.1300
L218.7300 117.1300
" />
<path d="M218.7300 102.6300
L204.2300 102.6300
" />
<path d="M218.7300 117.1300
L218.7300 102.6300
" />
<path d="M60.7200 83.5800
L60.7200 98.0800
" />
<path d="M60.7200 98.0800
L75.2200 98.0800
" />
<path d="M75.2200 83.5800
L60.7200 83.5800
" />
<path d="M75.2200 98.0800
L75.2200 83.5800
" />
<path d="M22.6200 83.5800
L22.6200 98.0800
" />
<path d="M22.6200 98.0800
L37.1200 98.0800
" />
<path d="M37.1200 83.5800
L22.6200 83.5800
" />
<path d="M37.1200 98.0800
L37.1200 83.5800
" />
<path d="M117.8700 45.4800
L117.8700 59.9800
" />
<path d="M117.8700 59.9800
L132.3700 59.9800
" />
<path d="M132.3700 45.4800
L117.8700 45.4800
" />
<path d="M132.3700 59.9800
L132.3700 45.4800
" />
<circle cx="146.7100" cy="66.7000" r="2.3500" /> 
<path d="M214.3900 83.5800
L214.3900 98.0800
" />
<path d="M214.3900 98.0800
L228.8900 98.0800
" />
<path d="M228.8900 83.5800
L214.3900 83.5800
" />
<path d="M228.8900 98.0800
L228.8900 83.5800
" />
<path d="M41.6700 45.4800
L41.6700 59.9800
" />
<path d="M41.6700 59.9800
L56.1700 59.9800
" />
<path d="M56.1700 45.4800
L41.6700 45.4800
" />
<path d="M56.1700 59.9800
L56.1700 45.4800
" />
<path d="M3.5700 26.4300
L3.5700 40.9300
" />
<path d="M3.5700 40.9300
L18.0700 40.9300
" />
<path d="M18.0700 26.4300
L3.5700 26.4300
" />
<path d="M18.0700 40.9300
L18.0700 26.4300
" />
<circle cx="146.7100" cy="102.2600" r="2.3500" /> 
<path d="M79.7700 64.5300
L79.7700 79.0300
" />
<path d="M79.7700 79.0300
L94.2700 79.0300
" />
<path d="M94.2700 64.5300
L79.7700 64.5300
" />
<path d="M94.2700 79.0300
L94.2700 64.5300
" />
<circle cx="95.9100" cy="107.3400" r="2.3500" /> 
<path d="M195.3400 45.4800
L195.3400 59.9800
" />
<path d="M195.3400 59.9800
L209.8400 59.9800
" />
<path d="M209.8400 45.4800
L195.3400 45.4800
" />
<path d="M209.8400 59.9800
L209.8400 45.4800
" />
<path d="M22.6200 45.4800
L22.6200 59.9800
" />
<path d="M22.6200 59.9800
L37.1200 59.9800
" />
<path d="M37.1200 45.4800
L22.6200 45.4800
" />
<path d="M37.1200 59.9800
L37.1200 45.4800
" />
<path d="M60.7200 26.4300
L60.7200 40.9300
" />
<path d="M60.7200 40.9300
L75.2200 40.9300
" />
<path d="M75.2200 26.4300
L60.7200 26.4300
" />
<path d="M75.2200 40.9300
L75.2200 26.4300
" />
<path d="M60.7200 45.4800
L60.7200 59.9800
" />
<path d="M60.7200 59.9800
L75.2200 59.9800
" />
<path d="M75.2200 45.4800
L60.7200 45.4800
" />
<path d="M75.2200 59.9800
L75.2200 45.4800
" />
<path d="M3.5700 3.5700
L3.5700 18.0700
" />
<path d="M3.5700 18.0700
L18.0700 18.0700
" />
<path d="M18.0700 3.5700
L3.5700 3.5700
" />
<path d="M18.0700 18.0700
L18.0700 3.5700
" />
<path d="M157.2400 83.5800
L157.2400 98.0800
" />
<path d="M157.2400 98.0800
L171.7400 98.0800
" />
<path d="M171.7400 83.5800
L157.2400 83.5800
" />
<path d="M171.7400 98.0800
L171.7400 83.5800
" />
<path d="M98.8200 83.5800
L98.8200 98.0800
" />
<path d="M98.8200 98.0800
L113.3200 98.0800
" />
<path d="M113.3200 83.5800
L98.8200 83.5800
" />
<path d="M113.3200 98.0800
L113.3200 83.5800
" />
<path d="M31.5100 102.6300
L31.5100 117.1300
" />
<path d="M31.5100 117.1300
L46.0100 117.1300
" />
<path d="M46.0100 102.6300
L31.5100 102.6300
" />
<path d="M46.0100 117.1300
L46.0100 102.6300
" />
<circle cx="192.4300" cy="107.3400" r="2.3500" /> 
<path d="M98.8200 64.5300
L98.8200 79.0300
" />
<path d="M98.8200 79.0300
L113.3200 79.0300
" />
<path d="M113.3200 64.5300
L98.8200 64.5300
" />
<path d="M113.3200 79.0300
L113.3200 64.5300
" />
<path d="M3.5700 64.5300
L3.5700 79.0300
" />
<path d="M3.5700 79.0300
L18.0700 79.0300
" />
<path d="M18.0700 64.5300
L3.5700 64.5300
" />
<path d="M18.0700 79.0300
L18.0700 64.5300
" />
<path d="M214.3900 45.4800
L214.3900 59.9800
" />
<path d="M214.3900 59.9800
L228.8900 59.9800
" />
<path d="M228.8900 45.4800
L214.3900 45.4800
" />
<path d="M228.8900 59.9800
L228.8900 45.4800
" />
<path d="M271.5400 26.4300
L271.5400 40.9300
" />
<path d="M271.5400 40.9300
L286.0400 40.9300
" />
<path d="M286.0400 26.4300
L271.5400 26.4300
" />
<path d="M286.0400 40.9300
L286.0400 26.4300
" />
<path d="M157.2400 45.4800
L157.2400 59.9800
" />
<path d="M157.2400 59.9800
L171.7400 59.9800
" />
<path d="M171.7400 45.4800
L157.2400 45.4800
" />
<path d="M171.7400 59.9800
L171.7400 45.4800
" />
<path d="M79.7700 83.5800
L79.7700 98.0800
" />
<path d="M79.7700 98.0800
L94.2700 98.0800
" />
<path d="M94.2700 83.5800
L79.7700 83.5800
" />
<path d="M94.2700 98.0800
L94.2700 83.5800
" />
<path d="M223.2800 102.6300
L223.2800 117.1300
" />
<path d="M223.2800 117.1300
L237.7800 117.1300
" />
<path d="M237.7800 102.6300
L223.2800 102.6300
" />
<path d="M237.7800 117.1300
L237.7800 102.6300
" />
<path d="M166.1300 102.6300
L166.1300 117.1300
" />
<path d="M166.1300 117.1300
L180.6300 117.1300
" />
<path d="M180.6300 102.6300
L166.1300 102.6300
" />
<path d="M180.6300 117.1300
L180.6300 102.6300
" />
<path d="M41.6700 64.5300
L41.6700 79.0300
" />
<path d="M41.6700 79.0300
L56.1700 79.0300
" />
<path d="M56.1700 64.5300
L41.6700 64.5300
" />
<path d="M56.1700 79.0300
L56.1700 64.5300
" />
<path d="M117.8700 26.4300
L117.8700 40.9300
" />
<path d="M117.8700 40.9300
L132.3700 40.9300
" />
<path d="M132.3700 26.4300
L117.8700 26.4300
" />
<path d="M132.3700 40.9300
L132.3700 26.4300
" />
<path d="M69.6100 102.6300
L69.6100 117.1300
" />
<path d="M69.6100 117.1300
L84.1100 117.1300
" />
<path d="M84.1100 102.6300
L69.6100 102.6300
" />
<path d="M84.1100 117.1300
L84.1100 102.6300
" />
<path d="M176.2900 45.4800
L176.2900 59.9800
" />
<path d="M176.2900 59.9800
L190.7900 59.9800
" />
<path d="M190.7900 45.4800
L176.2900 45.4800
" />
<path d="M190.7900 59.9800
L190.7900 45.4800
" />
<path d="M233.4400 26.4300
L233.4400 40.9300
" />
<path d="M233.4400 40.9300
L247.9400 40.9300
" />
<path d="M247.9400 26.4300
L233.4400 26.4300
" />
<path d="M247.9400 40.9300
L247.9400 26.4300
" />
<path d="M214.3900 64.5300
L214.3900 79.0300
" />
<path d="M214.3900 79.0300
L228.8900 79.0300
" />
<path d="M228.8900 64.5300
L214.3900 64.5300
" />
<path d="M228.8900 79.0300
L228.8900 64.5300
" />
<path d="M242.3300 102.6300
L242.3300 117.1300
" />
<path d="M242.3300 117.1300
L256.8300 117.1300
" />
<path d="M256.8300 102.6300
L242.3300 102.6300
" />
<path d="M256.8300 117.1300
L256.8300 102.6300
" />
<path d="M214.3900 26.4300
L214.3900 40.9300
" />
<path d="M214.3900 40.9300
L228.8900 40.9300
" />
<path d="M228.8900 26.4300
L214.3900 26.4300
" />
<path d="M228.8900 40.9300
L228.8900 26.4300
" />
<circle cx="278.7900" cy="71.7800" r="2.3500" /> 
<path d="M117.8700 64.5300
L117.8700 79.0300
" />
<path d="M117.8700 79.0300
L132.3700 79.0300
" />
<path d="M132.3700 64.5300
L117.8700 64.5300
" />
<path d="M132.3700 79.0300
L132.3700 64.5300
" />
<path d="M233.4400 64.5300
L233.4400 79.0300
" />
<path d="M233.4400 79.0300
L247.9400 79.0300
" />
<path d="M247.9400 64.5300
L233.4400 64.5300
" />
<path d="M247.9400 79.0300
L247.9400 64.5300
" />
<path d="M252.4900 45.4800
L252.4900 59.9800
" />
<path d="M252.4900 59.9800
L266.9900 59.9800
" />
<path d="M266.9900 45.4800
L252.4900 45.4800
" />
<path d="M266.9900 59.9800
L266.9900 45.4800
" />
<path d="M107.7100 102.6300
L107.7100 117.1300
" />
<path d="M107.7100 117.1300
L122.2100 117.1300
" />
<path d="M122.2100 102.6300
L107.7100 102.6300
" />
<path d="M122.2100 117.1300
L122.2100 102.6300
" />
<path d="M79.7700 26.4300
L79.7700 40.9300
" />
<path d="M79.7700 40.9300
L94.2700 40.9300
" />
<path d="M94.2700 26.4300
L79.7700 26.4300
" />
<path d="M94.2700 40.9300
L94.2700 26.4300
" />
<path d="M41.6700 26.4300
L41.6700 40.9300
" />
<path d="M41.6700 40.9300
L56.1700 40.9300
" />
<path d="M56.1700 26.4300
L41.6700 26.4300
" />
<path d="M56.1700 40.9300
L56.1700 26.4300
" />
<path d="M117.8700 83.5800
L117.8700 98.0800
" />
<path d="M117.8700 98.0800
L132.3700 98.0800
" />
<path d="M132.3700 83.5800
L117.8700 83.5800
" />
<path d="M132.3700 98.0800
L132.3700 83.5800
" />
<path d="M60.7200 64.5300
L60.7200 79.0300
" />
<path d="M60.7200 79.0300
L75.2200 79.0300
" />
<path d="M75.2200 64.5300
L60.7200 64.5300
" />
<path d="M75.2200 79.0300
L75.2200 64.5300
" />
<path d="M252.4900 83.5800
L252.4900 98.0800
" />
<path d="M252.4900 98.0800
L266.9900 98.0800
" />
<path d="M266.9900 83.5800
L252.4900 83.5800
" />
<path d="M266.9900 98.0800
L266.9900 83.5800
" />
<path d="M22.6200 64.5300
L22.6200 79.0300
" />
<path d="M22.6200 79.0300
L37.1200 79.0300
" />
<path d="M37.1200 64.5300
L22.6200 64.5300
" />
<path d="M37.1200 79.0300
L37.1200 64.5300
" />
<path d="M79.7700 45.4800
L79.7700 59.9800
" />
<path d="M79.7700 59.9800
L94.2700 59.9800
" />
<path d="M94.2700 45.4800
L79.7700 45.4800
" />
<path d="M94.2700 59.9800
L94.2700 45.4800
" />
<path d="M50.5600 102.6300
L50.5600 117.1300
" />
<path d="M50.5600 117.1300
L65.0600 117.1300
" />
<path d="M65.0600 102.6300
L50.5600 102.6300
" />
<path d="M65.0600 117.1300
L65.0600 102.6300
" />
<path d="M3.5700 45.4800
L3.5700 59.9800
" />
<path d="M3.5700 59.9800
L18.0700 59.9800
" />
<path d="M18.0700 45.4800
L3.5700 45.4800
" />
<path d="M18.0700 59.9800
L18.0700 45.4800
" />
<path d="M157.2400 26.4300
L157.2400 40.9300
" />
<path d="M157.2400 40.9300
L171.7400 40.9300
" />
<path d="M171.7400 26.4300
L157.2400 26.4300
" />
<path d="M171.7400 40.9300
L171.7400 26.4300
" />
<path d="M252.4900 26.4300
L252.4900 40.9300
" />
<path d="M252.4900 40.9300
L266.9900 40.9300
" />
<path d="M266.9900 26.4300
L252.4900 26.4300
" />
<path d="M266.9900 40.9300
L266.9900 26.4300
" />
<path d="M233.4400 83.5800
L233.4400 98.0800
" />
<path d="M233.4400 98.0800
L247.9400 98.0800
" />
<path d="M247.9400 83.5800
L233.4400 83.5800
" />
<path d="M247.9400 98.0800
L247.9400 83.5800
" />
<path d="M195.3400 83.5800
L195.3400 98.0800
" />
<path d="M195.3400 98.0800
L209.8400 98.0800
" />
<path d="M209.8400 83.5800
L195.3400 83.5800
" />
<path d="M209.8400 98.0800
L209.8400 83.5800
" />
<path d="M233.4400 45.4800
L233.4400 59.9800
" />
<path d="M233.4400 59.9800
L247.9400 59.9800
" />
<path d="M247.9400 45.4800
L233.4400 45.4800
" />
<path d="M247.9400 59.9800
L247.9400 45.4800
" />
<path d="M308.6350 23.5200
L330.2250 23.5200
" />
<path d="M262.2800 121.3100
L27.3300 121.3100
" />
<path d="M308.6350 22.8850
L308.6350 23.5200
" />
<path d="M22.2500 0.0250
L22.2500 19.7100
" />
<path d="M27.3300 121.3100
L27.3300 102.2600
" />
<path d="M262.2800 113.6900
L298.4750 77.4950
" />
<path d="M0.0250 0.0250
L22.2500 0.0250
" />
<path d="M27.3300 102.2600
L18.4400 102.2600
" />
<path d="M22.2500 19.7100
L306.7300 19.7100
" />
<path d="M18.4400 83.2100
L0.0250 83.2100
" />
<path d="M330.2250 23.5200
L330.2250 77.4950
" />
<path d="M18.4400 102.2600
L18.4400 83.2100
" />
<path d="M330.2250 77.4950
L298.4750 77.4950
" />
<path d="M0.0250 83.2100
L0.0250 0.0250
" />
<path d="M262.2800 113.6900
L262.2800 121.3100
" />
<path d="M306.7300 19.7100
L308.6350 22.8850
" />
</g> 
</svg>
