<?xml version="1.0" standalone="no"?>
 <!DOCTYPE svg PUBLIC "-//W3C//DTD SVG 1.1//EN" 
 "http://www.w3.org/Graphics/SVG/1.1/DTD/svg11.dtd"> 
<svg
  xmlns:svg="http://www.w3.org/2000/svg"
  xmlns="http://www.w3.org/2000/svg"
  xmlns:xlink="http://www.w3.org/1999/xlink"
  version="1.1"
  width="330.2254mm" height="121.3104mm" viewBox="0.0000 0.0000 330.2254 121.3104">
<title>SVG Image created as remake-Edge_Cuts.svg date 2024/11/17 13:14:57 </title>
  <desc>Image generated by PCBNEW </desc>
<g style="fill:#000000; fill-opacity:1.0000;stroke:#000000; stroke-opacity:1.0000;
stroke-linecap:round; stroke-linejoin:round;"
 transform="translate(0 0) scale(1 1)">
</g>
<g style="fill:none; 
stroke:#000000; stroke-width:0.0500; stroke-opacity:1; 
stroke-linecap:round; stroke-linejoin:round;">
<path d="M308.6350 23.5200
L330.2250 23.5200
" />
<path d="M262.2800 121.3100
L27.3300 121.3100
" />
<path d="M308.6350 22.8850
L308.6350 23.5200
" />
<path d="M22.2500 0.0250
L22.2500 19.7100
" />
<path d="M27.3300 121.3100
L27.3300 102.2600
" />
<path d="M262.2800 113.6900
L298.4750 77.4950
" />
<path d="M0.0250 0.0250
L22.2500 0.0250
" />
<path d="M27.3300 102.2600
L18.4400 102.2600
" />
<path d="M22.2500 19.7100
L306.7300 19.7100
" />
<path d="M18.4400 83.2100
L0.0250 83.2100
" />
<path d="M330.2250 23.5200
L330.2250 77.4950
" />
<path d="M18.4400 102.2600
L18.4400 83.2100
" />
<path d="M330.2250 77.4950
L298.4750 77.4950
" />
<path d="M0.0250 83.2100
L0.0250 0.0250
" />
<path d="M262.2800 113.6900
L262.2800 121.3100
" />
<path d="M306.7300 19.7100
L308.6350 22.8850
" />
<path d="M308.6350 23.5200
L330.2250 23.5200
" />
<path d="M262.2800 121.3100
L27.3300 121.3100
" />
<path d="M308.6350 22.8850
L308.6350 23.5200
" />
<path d="M22.2500 0.0250
L22.2500 19.7100
" />
<path d="M27.3300 121.3100
L27.3300 102.2600
" />
<path d="M262.2800 113.6900
L298.4750 77.4950
" />
<path d="M0.0250 0.0250
L22.2500 0.0250
" />
<path d="M27.3300 102.2600
L18.4400 102.2600
" />
<path d="M22.2500 19.7100
L306.7300 19.7100
" />
<path d="M18.4400 83.2100
L0.0250 83.2100
" />
<path d="M330.2250 23.5200
L330.2250 77.4950
" />
<path d="M18.4400 102.2600
L18.4400 83.2100
" />
<path d="M330.2250 77.4950
L298.4750 77.4950
" />
<path d="M0.0250 83.2100
L0.0250 0.0250
" />
<path d="M262.2800 113.6900
L262.2800 121.3100
" />
<path d="M306.7300 19.7100
L308.6350 22.8850
" />
</g> 
</svg>
